<svg width="32" height="32" viewBox="0 0 32 32" fill="none" xmlns="http://www.w3.org/2000/svg">
<path d="M27.4806 15.7731L23.809 12.6242V8.37346C23.809 8.11247 23.5976 7.90104 23.3368 7.90104H20.8776C20.6166 7.90104 20.4052 8.11247 20.4052 8.37346V9.70233L16.3149 6.19452C16.1357 6.03412 15.8644 6.03412 15.6852 6.19452L4.5196 15.7733C4.36823 15.9027 4.31428 16.1134 4.38484 16.2996C4.4554 16.4859 4.63533 16.608 4.83455 16.6046H8.19123V25.4464C8.19123 25.7074 8.40266 25.9189 8.6634 25.9189H10.3072C10.568 25.9189 10.7796 25.7074 10.7796 25.4464C10.7796 25.1857 10.568 24.9743 10.3072 24.9743H9.13584V16.1324C9.13584 15.8717 8.92441 15.6602 8.66343 15.6602H6.10361L16.0005 7.18398L25.8974 15.6602H23.3373C23.0763 15.6602 22.8649 15.8717 22.8649 16.1324V24.9743H21.6903C21.4296 24.9743 21.2182 25.1857 21.2182 25.4464C21.2182 25.7074 21.4296 25.9189 21.6903 25.9189H23.3373C23.5981 25.9189 23.8095 25.7074 23.8095 25.4464V16.6046H27.1757C27.3749 16.608 27.5548 16.4859 27.6254 16.2996C27.6959 16.1134 27.642 15.9027 27.4906 15.7733L27.4806 15.7731ZM21.3529 8.84564H22.8644V11.8149L21.3529 10.5178V8.84564ZM20.4084 17.7319H11.5915C11.3308 17.7319 11.1191 17.9433 11.1191 18.2043V26.3912C11.1191 26.6522 11.3308 26.8636 11.5915 26.8636H20.4084C20.6694 26.8636 20.8808 26.6522 20.8808 26.3912V18.2043C20.8808 17.9433 20.6694 17.7319 20.4084 17.7319ZM16.6708 18.6765V20.8586L16.5607 20.7924L16.5605 20.7927C16.3739 20.6801 16.1344 20.7101 15.9811 20.8649L15.5529 21.2963L15.3324 21.0444V18.6767L16.6708 18.6765ZM19.9394 25.919H12.0675V18.6765H14.3912V21.2209C14.3903 21.3366 14.4318 21.4487 14.5077 21.5356L15.1783 22.2978C15.2648 22.3959 15.3878 22.454 15.5184 22.4582C15.6449 22.4589 15.7662 22.4091 15.8553 22.3198L16.378 21.7907L16.8851 22.1056C17.0306 22.1928 17.2118 22.195 17.3595 22.1118C17.5072 22.0285 17.599 21.8723 17.6 21.7026V18.6767H19.9364L19.9394 25.919Z" fill="#1A6FEE"/>
</svg>
