<svg width="24" height="24" viewBox="0 0 24 24" fill="none" xmlns="http://www.w3.org/2000/svg">
<path d="M7.36847 1.8371H2.68296C2.45614 1.8371 2.30511 1.98716 2.30511 2.21206V6.82449C2.30511 7.04959 2.45633 7.19946 2.68296 7.19946H7.3308C7.55762 7.19946 7.70864 7.0494 7.70864 6.82449V2.21206C7.74635 1.98697 7.55739 1.8371 7.36847 1.8371ZM6.99062 6.44953H3.06077V2.58705H6.9529V6.44953H6.99062Z" fill="#B8C1CC"/>
<path d="M7.36847 9.29974H2.68296C2.45614 9.29974 2.30511 9.44981 2.30511 9.67471V14.2871C2.30511 14.5122 2.45633 14.6621 2.68296 14.6621H7.3308C7.55762 14.6621 7.70864 14.512 7.70864 14.2871V9.67471C7.74635 9.48722 7.55739 9.29974 7.36847 9.29974ZM6.99062 13.9496H3.06077V10.0496H6.9529V13.9496H6.99062Z" fill="#B8C1CC"/>
<path d="M7.36847 16.7997H2.68296C2.45614 16.7997 2.30511 16.9497 2.30511 17.1746V21.7871C2.30511 22.0122 2.45633 22.162 2.68296 22.162H7.3308C7.55762 22.162 7.70864 22.012 7.70864 21.7871V17.1746C7.74635 16.9872 7.55739 16.7997 7.36847 16.7997ZM6.99062 21.4121H3.06077V17.5496H6.9529V21.4121H6.99062Z" fill="#B8C1CC"/>
<path d="M4.1938 5.66197C4.2694 5.737 4.38272 5.77442 4.45833 5.77442C4.57165 5.77442 4.64725 5.737 4.72286 5.66197L6.53668 3.86197C6.6879 3.7119 6.6879 3.487 6.53668 3.33691C6.38547 3.18685 6.15884 3.18685 6.0076 3.33691L4.45832 4.87439L4.04258 4.46182C3.89136 4.31175 3.66474 4.31175 3.5135 4.46182C3.36228 4.61188 3.36228 4.83678 3.5135 4.98687L4.1938 5.66197Z" fill="#B8C1CC"/>
<path d="M4.1938 13.162C4.2694 13.237 4.34502 13.2744 4.45833 13.2744C4.57165 13.2744 4.64725 13.237 4.72286 13.162L6.53668 11.362C6.6879 11.2119 6.6879 10.987 6.53668 10.8369C6.38547 10.6868 6.15884 10.6868 6.0076 10.8369L4.45832 12.3744L4.04258 11.9618C3.89136 11.8118 3.66474 11.8118 3.5135 11.9618C3.36228 12.1119 3.36228 12.3368 3.5135 12.4869L4.1938 13.162Z" fill="#B8C1CC"/>
<path d="M4.1938 20.6619C4.2694 20.7369 4.38272 20.7744 4.45833 20.7744C4.57165 20.7744 4.64725 20.7369 4.72286 20.6619L6.53668 18.8619C6.6879 18.7118 6.6879 18.4869 6.53668 18.3369C6.38547 18.1868 6.15884 18.1868 6.0076 18.3369L4.45832 19.8743L4.04258 19.4618C3.89136 19.3117 3.66474 19.3117 3.5135 19.4618C3.36228 19.6118 3.36228 19.8367 3.5135 19.9868L4.1938 20.6619Z" fill="#B8C1CC"/>
<path d="M23.6547 13.4621H19.4225C19.1957 13.4621 19.0446 13.6122 19.0446 13.8371C18.2889 13.5746 18.5535 13.7246 18.1754 13.5371L18.1756 5.88733C18.1756 5.77488 18.1379 5.69985 18.0623 5.62481L12.5076 0.112453C12.432 0.037615 12.3187 0 12.2431 0H0.377842C0.151022 0 0 0.150063 0 0.374964V23.625C0 23.8501 0.151215 24 0.377842 24H17.7601C17.987 24 18.138 23.8499 18.138 23.625V21.4501H19.0072C19.0449 21.6376 19.1961 21.75 19.385 21.75H23.6173C23.8441 21.75 23.9952 21.6 23.9952 21.3751V13.8378C24.0329 13.6129 23.8439 13.4628 23.655 13.4628L23.6547 13.4621ZM19.0446 14.587V20.6997H11.7519C11.2228 20.6997 11.1852 20.2871 11.1852 20.1746C11.1852 20.0245 11.2229 19.9121 11.2985 19.7996C11.3741 19.6872 11.5253 19.6496 11.6763 19.6496C11.9031 19.6496 12.0542 19.4995 12.0542 19.2746C12.0542 19.0495 11.903 18.8996 11.6763 18.8996H11.1472C10.6182 18.8996 10.5805 18.4871 10.5805 18.3746C10.5805 18.1871 10.6938 17.8495 11.1096 17.8495C11.2985 17.8495 11.4497 17.6995 11.4874 17.512C11.4874 17.3245 11.3741 17.137 11.1852 17.0994H10.9206C10.316 17.1368 10.0893 17.0244 10.0138 16.7245C9.97605 16.5744 10.0138 16.3869 10.0894 16.2745C10.2027 16.162 10.3539 16.087 10.5051 16.087C10.7319 16.087 10.8829 15.9369 10.8829 15.712C10.8829 15.4869 10.7317 15.337 10.5051 15.337H9.93835C9.52261 15.337 9.40927 14.9995 9.40927 14.812C9.40927 14.737 9.44698 14.2869 9.97602 14.2869H12.6211C13.2258 14.2869 13.717 14.0244 13.9438 13.6119C14.1327 13.1993 14.2083 12.4868 13.3391 11.3619C13.0369 10.9869 12.9234 10.4993 13.0746 10.1244C13.2635 9.5993 13.7926 9.3744 14.1327 9.33682C14.095 12.0742 16.8157 13.6867 18.0248 14.2494C18.0624 14.3246 19.0448 14.5871 19.0448 14.5871L19.0446 14.587ZM12.6207 1.27449L16.8907 5.51195H12.6207V1.27449ZM17.4197 23.2493H0.793307V0.749339H11.865V5.88687C11.865 6.11197 12.0162 6.26184 12.2429 6.26184H17.4198V13.0868C16.2861 12.3743 14.888 11.0994 14.9258 9.33679C14.9258 9.14931 14.8502 8.92422 14.6989 8.81174C14.5477 8.66168 14.3211 8.62426 14.1322 8.62426C13.263 8.73671 12.6585 9.22433 12.394 9.89921C12.1672 10.5367 12.3184 11.2492 12.7718 11.8492C13.263 12.4493 13.4521 13.0117 13.3009 13.2743C13.1876 13.4994 12.8098 13.5368 12.6585 13.5368H10.0134C9.14421 13.5368 8.69077 14.1743 8.69077 14.8117C8.69077 15.2617 8.9553 15.7492 9.40875 15.9742C9.25753 16.2742 9.21983 16.5743 9.29543 16.9117C9.40875 17.3617 9.71117 17.6242 10.0134 17.7366C9.9001 17.9241 9.8622 18.1492 9.8622 18.3741C9.8622 18.8241 10.1267 19.3115 10.5802 19.5366C10.4669 19.7241 10.429 19.9492 10.429 20.1741C10.429 20.8116 10.8824 21.4491 11.7516 21.4491H17.4197L17.4197 23.2493ZM23.2768 21.0367H19.8004V14.2117H23.2768V21.0367Z" fill="#B8C1CC"/>
</svg>
